<svg version="1.1" viewBox="0.0 0.0 960.0 720.0" fill="none" stroke="none" stroke-linecap="square" stroke-miterlimit="10" xmlns:xlink="http://www.w3.org/1999/xlink" xmlns="http://www.w3.org/2000/svg"><clipPath id="p.0"><path d="m0 0l960.0 0l0 720.0l-960.0 0l0 -720.0z" clip-rule="nonzero"/></clipPath><g clip-path="url(#p.0)"><path fill="#000000" fill-opacity="0.0" d="m0 0l960.0 0l0 720.0l-960.0 0z" fill-rule="evenodd"/><path fill="#000000" d="m149.94217 203.03668c-2.8269348 0 -5.458908 1.2333069 -7.895935 3.6999512c-2.4370117 2.3895416 -4.565338 5.7811584 -6.3849792 10.174835c-1.7871399 4.3936768 -3.2006073 9.442566 -4.2404175 15.146637c-1.0072784 5.626999 -1.5109406 11.793579 -1.5109406 18.499725c0 6.474884 0.5036621 12.602936 1.5109406 18.384094c1.0398102 5.7811584 2.4532776 10.868561 4.2404175 15.262268c1.8196411 4.3936768 3.9479675 7.823822 6.3849792 10.290436c2.437027 2.389557 5.0690002 3.58432 7.895935 3.58432c2.82695 0 5.4589233 -1.1947632 7.895935 -3.58432c2.437027 -2.4666138 4.549103 -5.896759 6.3362427 -10.290436c1.8196564 -4.3937073 3.2331238 -9.48111 4.2404175 -15.262268c1.0397949 -5.7811584 1.5596924 -11.90921 1.5596924 -18.384094c0 -6.7061462 -0.51989746 -12.872726 -1.5596924 -18.499725c-1.0072937 -5.704071 -2.420761 -10.75296 -4.2404175 -15.146637c-1.7871399 -4.3936768 -3.8992157 -7.7852936 -6.3362427 -10.174835c-2.4370117 -2.4666443 -5.068985 -3.6999512 -7.895935 -3.6999512zm-52.347122 146.0321l0 49.94925l43.427643 0l0 248.01175l-48.252937 0l0 50.296143l117.707924 0l0 -50.296143l-43.720093 0l0 -297.961z" fill-rule="evenodd"/><path fill="#000000" d="m327.74692 342.82513c-4.289154 0 -8.432068 1.0020752 -12.428772 3.0062256c-3.996704 1.927063 -7.9284363 5.3186646 -11.795166 10.174835c-3.834259 4.8561707 -7.7497253 11.2925415 -11.746429 19.309082c-3.996704 7.939453 -8.139618 17.9216 -12.428772 29.946411l-1.0235596 -56.1929l-22.664246 0l0 348.25714l25.442444 0l0 -231.0152c4.679077 -13.874786 8.886993 -25.437103 12.623749 -34.68695c3.7692566 -9.249878 7.262329 -16.572662 10.479187 -21.968414c3.216858 -5.4728394 6.3037415 -9.288391 9.260651 -11.446716c2.9894104 -2.2353516 6.0437927 -3.3530579 9.1631775 -3.3530579c8.480835 0 14.865814 6.552002 19.154968 19.655945c4.289154 13.026886 6.433716 33.18387 6.433716 60.470947l0 222.34344l25.442474 0l0 -227.19962c0 -42.549347 -3.8829956 -74.38428 -11.648956 -95.50479c-7.7334595 -21.19757 -19.154938 -31.796387 -34.264465 -31.796387z" fill-rule="evenodd"/><path fill="#000000" d="m482.88742 394.8556c4.971527 0 9.99176 1.2333069 15.0607605 3.6999512c5.0690002 2.389557 9.699341 5.896759 13.890991 10.521698l0 161.64127c-7.895935 26.824585 -15.434418 47.058655 -22.615509 60.70215c-7.14859 13.643555 -13.939728 20.465332 -20.373444 20.465332c-9.553131 0 -16.945404 -10.329041 -22.17688 -30.987c-5.198944 -20.735107 -7.7984314 -52.14612 -7.7984314 -94.23291c0 -45.32434 3.8667297 -78.62381 11.600189 -99.89847c7.7659607 -21.274689 18.570068 -31.912018 32.412323 -31.912018zm28.951752 -187.65646l0 146.37897c-4.386627 -3.006195 -8.854492 -5.2030334 -13.403595 -6.590515c-4.5166016 -1.3874817 -9.114441 -2.0812073 -13.793488 -2.0812073c-10.820374 0 -20.649658 4.1239014 -29.487915 12.371674c-8.805756 8.170715 -16.360504 20.195526 -22.664246 36.074432c-6.2712708 15.801849 -11.1128235 35.226562 -14.524628 58.27411c-3.4118347 22.97049 -5.117737 49.255493 -5.117737 78.85504c0 25.899597 1.0722656 49.486694 3.216858 70.76141c2.1445618 21.274658 5.328949 39.504578 9.553101 54.68976c4.256653 15.108093 9.569366 26.824585 15.93808 35.149475c6.401245 8.324829 13.793518 12.487305 22.17688 12.487305c9.650574 0 18.618805 -5.8967896 26.904663 -17.690369c8.285858 -11.793579 15.986816 -29.946411 23.102905 -54.458557l0.87731934 65.90527l22.810486 0l0 -490.1268z" fill-rule="evenodd"/><path fill="#000000" d="m644.1692 391.04c6.433716 0 12.0876465 2.620819 16.96167 7.8623962c4.8740234 5.1645203 8.93573 12.371674 12.185059 21.621552c3.2818604 9.249847 5.7026367 20.311127 7.262329 33.183838c1.5596924 12.795654 2.1932983 26.940216 1.9008789 42.433716l-77.20471 0c0.48742676 -15.4935 1.7546387 -29.715149 3.8017578 -42.664948c2.047058 -12.949799 4.727783 -24.049622 8.042114 -33.2995c3.314392 -9.249847 7.262329 -16.418488 11.843933 -21.50592c4.581604 -5.0874023 9.650574 -7.631134 15.20697 -7.631134zm1.1697998 -48.214874c-10.527954 0 -19.934814 4.8561707 -28.220703 14.5685425c-8.285828 9.712341 -15.288208 22.854858 -21.00708 39.42752c-5.6863403 16.495575 -10.024231 35.689026 -13.013672 57.580353c-2.9569092 21.81424 -4.435364 44.977417 -4.435364 69.48956c0 28.212036 1.3809814 53.494934 4.1429443 75.848816c2.7944336 22.276733 7.083618 41.12329 12.867432 56.539734c5.816345 15.339355 13.257385 27.055847 22.32312 35.149475c9.065674 8.093628 19.886047 12.140442 32.46106 12.140442c9.358154 0 18.391357 -1.4645386 27.09961 -4.3936768c8.740784 -2.8520508 16.571716 -6.590576 23.492859 -11.215454l0 -49.602356c-3.1193848 2.0811768 -6.5149536 4.0082397 -10.186768 5.781128c-3.6392212 1.6958008 -7.4572754 3.2374268 -11.4539795 4.624939c-3.996704 1.3874512 -8.139587 2.505127 -12.428772 3.3530884c-4.2891235 0.770813 -8.578308 1.156189 -12.867432 1.156189c-15.79187 0 -27.879456 -9.519653 -36.262817 -28.558899c-8.383362 -19.116394 -12.575012 -46.48053 -12.575012 -82.09247l103.085815 0c0.19494629 -5.0874634 0.34118652 -10.5217285 0.43865967 -16.302917c0.097473145 -5.781128 0.14624023 -12.949768 0.14624023 -21.50589c0 -24.743378 -1.3972168 -47.097168 -4.1917114 -67.06146c-2.7619019 -20.041351 -6.856079 -37.037964 -12.282532 -50.989838c-5.393921 -14.028931 -12.038879 -24.858978 -19.934814 -32.490112c-7.895935 -7.631134 -16.961609 -11.446716 -27.197083 -11.446716z" fill-rule="evenodd"/><path fill="#000000" d="m739.06665 349.0688l54.247986 173.43481l-56.879944 174.82233l32.89972 0l39.187195 -132.85107l39.625916 132.85107l33.77704 0l-57.464844 -173.43481l55.125305 -174.82233l-31.4375 0l-37.871216 133.8917l-38.602356 -133.8917z" fill-rule="evenodd"/><path stroke="#000000" stroke-width="24.0" stroke-linejoin="round" stroke-linecap="butt" d="m149.94217 203.03668c-2.8269348 0 -5.458908 1.2333069 -7.895935 3.6999512c-2.4370117 2.3895416 -4.565338 5.7811584 -6.3849792 10.174835c-1.7871399 4.3936768 -3.2006073 9.442566 -4.2404175 15.146637c-1.0072784 5.626999 -1.5109406 11.793579 -1.5109406 18.499725c0 6.474884 0.5036621 12.602936 1.5109406 18.384094c1.0398102 5.7811584 2.4532776 10.868561 4.2404175 15.262268c1.8196411 4.3936768 3.9479675 7.823822 6.3849792 10.290436c2.437027 2.389557 5.0690002 3.58432 7.895935 3.58432c2.82695 0 5.4589233 -1.1947632 7.895935 -3.58432c2.437027 -2.4666138 4.549103 -5.896759 6.3362427 -10.290436c1.8196564 -4.3937073 3.2331238 -9.48111 4.2404175 -15.262268c1.0397949 -5.7811584 1.5596924 -11.90921 1.5596924 -18.384094c0 -6.7061462 -0.51989746 -12.872726 -1.5596924 -18.499725c-1.0072937 -5.704071 -2.420761 -10.75296 -4.2404175 -15.146637c-1.7871399 -4.3936768 -3.8992157 -7.7852936 -6.3362427 -10.174835c-2.4370117 -2.4666443 -5.068985 -3.6999512 -7.895935 -3.6999512zm-52.347122 146.0321l0 49.94925l43.427643 0l0 248.01175l-48.252937 0l0 50.296143l117.707924 0l0 -50.296143l-43.720093 0l0 -297.961z" fill-rule="evenodd"/><path stroke="#000000" stroke-width="24.0" stroke-linejoin="round" stroke-linecap="butt" d="m327.74692 342.82513c-4.289154 0 -8.432068 1.0020752 -12.428772 3.0062256c-3.996704 1.927063 -7.9284363 5.3186646 -11.795166 10.174835c-3.834259 4.8561707 -7.7497253 11.2925415 -11.746429 19.309082c-3.996704 7.939453 -8.139618 17.9216 -12.428772 29.946411l-1.0235596 -56.1929l-22.664246 0l0 348.25714l25.442444 0l0 -231.0152c4.679077 -13.874786 8.886993 -25.437103 12.623749 -34.68695c3.7692566 -9.249878 7.262329 -16.572662 10.479187 -21.968414c3.216858 -5.4728394 6.3037415 -9.288391 9.260651 -11.446716c2.9894104 -2.2353516 6.0437927 -3.3530579 9.1631775 -3.3530579c8.480835 0 14.865814 6.552002 19.154968 19.655945c4.289154 13.026886 6.433716 33.18387 6.433716 60.470947l0 222.34344l25.442474 0l0 -227.19962c0 -42.549347 -3.8829956 -74.38428 -11.648956 -95.50479c-7.7334595 -21.19757 -19.154938 -31.796387 -34.264465 -31.796387z" fill-rule="evenodd"/><path stroke="#000000" stroke-width="24.0" stroke-linejoin="round" stroke-linecap="butt" d="m482.88742 394.8556c4.971527 0 9.99176 1.2333069 15.0607605 3.6999512c5.0690002 2.389557 9.699341 5.896759 13.890991 10.521698l0 161.64127c-7.895935 26.824585 -15.434418 47.058655 -22.615509 60.70215c-7.14859 13.643555 -13.939728 20.465332 -20.373444 20.465332c-9.553131 0 -16.945404 -10.329041 -22.17688 -30.987c-5.198944 -20.735107 -7.7984314 -52.14612 -7.7984314 -94.23291c0 -45.32434 3.8667297 -78.62381 11.600189 -99.89847c7.7659607 -21.274689 18.570068 -31.912018 32.412323 -31.912018zm28.951752 -187.65646l0 146.37897c-4.386627 -3.006195 -8.854492 -5.2030334 -13.403595 -6.590515c-4.5166016 -1.3874817 -9.114441 -2.0812073 -13.793488 -2.0812073c-10.820374 0 -20.649658 4.1239014 -29.487915 12.371674c-8.805756 8.170715 -16.360504 20.195526 -22.664246 36.074432c-6.2712708 15.801849 -11.1128235 35.226562 -14.524628 58.27411c-3.4118347 22.97049 -5.117737 49.255493 -5.117737 78.85504c0 25.899597 1.0722656 49.486694 3.216858 70.76141c2.1445618 21.274658 5.328949 39.504578 9.553101 54.68976c4.256653 15.108093 9.569366 26.824585 15.93808 35.149475c6.401245 8.324829 13.793518 12.487305 22.17688 12.487305c9.650574 0 18.618805 -5.8967896 26.904663 -17.690369c8.285858 -11.793579 15.986816 -29.946411 23.102905 -54.458557l0.87731934 65.90527l22.810486 0l0 -490.1268z" fill-rule="evenodd"/><path stroke="#000000" stroke-width="24.0" stroke-linejoin="round" stroke-linecap="butt" d="m644.1692 391.04c6.433716 0 12.0876465 2.620819 16.96167 7.8623962c4.8740234 5.1645203 8.93573 12.371674 12.185059 21.621552c3.2818604 9.249847 5.7026367 20.311127 7.262329 33.183838c1.5596924 12.795654 2.1932983 26.940216 1.9008789 42.433716l-77.20471 0c0.48742676 -15.4935 1.7546387 -29.715149 3.8017578 -42.664948c2.047058 -12.949799 4.727783 -24.049622 8.042114 -33.2995c3.314392 -9.249847 7.262329 -16.418488 11.843933 -21.50592c4.581604 -5.0874023 9.650574 -7.631134 15.20697 -7.631134zm1.1697998 -48.214874c-10.527954 0 -19.934814 4.8561707 -28.220703 14.5685425c-8.285828 9.712341 -15.288208 22.854858 -21.00708 39.42752c-5.6863403 16.495575 -10.024231 35.689026 -13.013672 57.580353c-2.9569092 21.81424 -4.435364 44.977417 -4.435364 69.48956c0 28.212036 1.3809814 53.494934 4.1429443 75.848816c2.7944336 22.276733 7.083618 41.12329 12.867432 56.539734c5.816345 15.339355 13.257385 27.055847 22.32312 35.149475c9.065674 8.093628 19.886047 12.140442 32.46106 12.140442c9.358154 0 18.391357 -1.4645386 27.09961 -4.3936768c8.740784 -2.8520508 16.571716 -6.590576 23.492859 -11.215454l0 -49.602356c-3.1193848 2.0811768 -6.5149536 4.0082397 -10.186768 5.781128c-3.6392212 1.6958008 -7.4572754 3.2374268 -11.4539795 4.624939c-3.996704 1.3874512 -8.139587 2.505127 -12.428772 3.3530884c-4.2891235 0.770813 -8.578308 1.156189 -12.867432 1.156189c-15.79187 0 -27.879456 -9.519653 -36.262817 -28.558899c-8.383362 -19.116394 -12.575012 -46.48053 -12.575012 -82.09247l103.085815 0c0.19494629 -5.0874634 0.34118652 -10.5217285 0.43865967 -16.302917c0.097473145 -5.781128 0.14624023 -12.949768 0.14624023 -21.50589c0 -24.743378 -1.3972168 -47.097168 -4.1917114 -67.06146c-2.7619019 -20.041351 -6.856079 -37.037964 -12.282532 -50.989838c-5.393921 -14.028931 -12.038879 -24.858978 -19.934814 -32.490112c-7.895935 -7.631134 -16.961609 -11.446716 -27.197083 -11.446716z" fill-rule="evenodd"/><path stroke="#000000" stroke-width="24.0" stroke-linejoin="round" stroke-linecap="butt" d="m739.06665 349.0688l54.247986 173.43481l-56.879944 174.82233l32.89972 0l39.187195 -132.85107l39.625916 132.85107l33.77704 0l-57.464844 -173.43481l55.125305 -174.82233l-31.4375 0l-37.871216 133.8917l-38.602356 -133.8917z" fill-rule="evenodd"/><path fill="#000000" fill-opacity="0.0" d="m240.91138 165.38324c-2.5243225 25.128372 -13.094025 48.725876 -23.338196 71.33911c-0.8977661 1.9817505 -3.803009 3.9635162 -1.7955322 3.9635162c11.131958 0 17.834656 -14.714188 26.929276 -21.799347c24.955399 -19.441528 50.774796 -37.53215 75.4088 -57.466797c7.631195 -6.1754303 16.65091 -25.216644 23.34198 -17.831635c8.216553 9.068726 -12.392303 21.778229 -19.750916 31.703934c-26.2276 35.377167 -51.470306 71.68642 -75.4088 108.98834c-8.445099 13.159485 -17.231964 26.07077 -25.133728 39.635162c-2.8302002 4.8583984 -10.54863 10.8541565 -5.386612 9.904602c10.15535 -1.868103 16.756271 -13.208221 25.133728 -19.813416c29.21936 -23.037842 57.967316 -46.82309 86.18201 -71.339096c16.147186 -14.030426 39.11136 -34.675674 44.884674 -39.630966c6.4262085 -5.5157013 21.725311 -24.57074 19.750916 -15.85408c-9.149078 40.39177 -50.17227 62.188766 -75.40881 93.13426c-8.781036 10.767456 -18.101074 20.987732 -26.92926 31.70813c-3.019165 3.6663208 -9.401337 10.143188 -5.386627 7.9270325c44.74762 -24.700775 80.54608 -65.540146 120.28967 -99.08371c14.927582 -12.598892 29.434906 -25.84201 44.884644 -37.64923c4.9206543 -3.7605286 11.687653 -17.799011 14.364288 -11.890549c3.0518188 6.7366943 -7.9789124 12.262192 -12.568756 17.83583c-14.6521 17.792633 -29.755768 35.961426 -39.498047 57.466797c-2.956421 6.526108 22.961395 -8.35997 19.750916 -1.9817505c-9.304901 18.4859 -23.179626 33.73236 -35.90695 49.539764c-2.5456848 3.1617737 -10.609924 8.017151 -7.1821594 9.908783c9.099548 5.021637 17.829742 -10.832428 26.92929 -15.854065" fill-rule="evenodd"/><path stroke="#000000" stroke-width="24.0" stroke-linejoin="round" stroke-linecap="butt" d="m240.91138 165.38324c-2.5243225 25.128372 -13.094025 48.725876 -23.338196 71.33911c-0.8977661 1.9817505 -3.803009 3.9635162 -1.7955322 3.9635162c11.131958 0 17.834656 -14.714188 26.929276 -21.799347c24.955399 -19.441528 50.774796 -37.53215 75.4088 -57.466797c7.631195 -6.1754303 16.65091 -25.216644 23.34198 -17.831635c8.216553 9.068726 -12.392303 21.778229 -19.750916 31.703934c-26.2276 35.377167 -51.470306 71.68642 -75.4088 108.98834c-8.445099 13.159485 -17.231964 26.07077 -25.133728 39.635162c-2.8302002 4.8583984 -10.54863 10.8541565 -5.386612 9.904602c10.15535 -1.868103 16.756271 -13.208221 25.133728 -19.813416c29.21936 -23.037842 57.967316 -46.82309 86.18201 -71.339096c16.147186 -14.030426 39.11136 -34.675674 44.884674 -39.630966c6.4262085 -5.5157013 21.725311 -24.57074 19.750916 -15.85408c-9.149078 40.39177 -50.17227 62.188766 -75.40881 93.13426c-8.781036 10.767456 -18.101074 20.987732 -26.92926 31.70813c-3.019165 3.6663208 -9.401337 10.143188 -5.386627 7.9270325c44.74762 -24.700775 80.54608 -65.540146 120.28967 -99.08371c14.927582 -12.598892 29.434906 -25.84201 44.884644 -37.64923c4.9206543 -3.7605286 11.687653 -17.799011 14.364288 -11.890549c3.0518188 6.7366943 -7.9789124 12.262192 -12.568756 17.83583c-14.6521 17.792633 -29.755768 35.961426 -39.498047 57.466797c-2.956421 6.526108 22.961395 -8.35997 19.750916 -1.9817505c-9.304901 18.4859 -23.179626 33.73236 -35.90695 49.539764c-2.5456848 3.1617737 -10.609924 8.017151 -7.1821594 9.908783c9.099548 5.021637 17.829742 -10.832428 26.92929 -15.854065" fill-rule="evenodd"/><path fill="#000000" fill-opacity="0.0" d="m601.7803 193.12697c-4.3569336 38.470566 -24.238281 73.115524 -41.297363 107.00658c-6.23999 12.396851 -27.03711 27.621368 -17.9516 37.6492c7.2058105 7.953125 15.600952 -14.475433 23.338196 -21.795135c30.852722 -29.187897 58.27069 -62.53676 87.97754 -93.13846c9.103516 -9.377701 21.715149 -33.495346 30.520386 -23.776901c12.301514 13.577332 -13.934631 35.369705 -23.34198 51.521515c-27.387634 47.02275 -58.92871 90.93776 -87.973816 136.73296c-12.187256 19.215637 -23.300537 39.254425 -34.11139 59.448547c-4.701172 8.781525 -4.8442993 8.708862 -8.977722 17.831635c-2.1623535 4.7725525 -7.915283 12.2951355 -3.5910645 9.908783c23.116821 -12.757141 38.47583 -38.10193 57.45343 -57.466797c50.353516 -51.381104 99.426025 -104.270966 149.01825 -156.54633c32.146362 -33.885605 64.33435 -67.72824 96.95148 -101.061295c8.862549 -9.057098 8.86554 -9.057358 17.955322 -17.83583c5.2769165 -5.096176 13.37738 -17.094276 10.773254 -9.908783c-7.883606 21.753098 -27.456055 35.740173 -41.297363 53.50328c-28.529541 36.613113 -56.28357 73.95372 -84.38269 110.97008c-14.715942 19.386017 -29.907532 38.32602 -44.884644 57.466797c-7.2766724 9.299622 -30.732422 31.74646 -19.750916 29.72638c32.73047 -6.0208435 51.92157 -45.63846 77.204346 -69.35733c32.990173 -30.949615 66.11987 -61.72345 98.74695 -93.13846c18.313354 -17.63301 61.44873 -75.99785 57.45343 -49.539764c-2.6766357 17.725372 -18.025574 30.057358 -28.728577 43.59868c-23.427063 29.639511 -47.45343 58.72737 -70.01843 89.17073c-8.0564575 10.869354 -25.137512 17.660736 -25.137512 31.703949c0 5.6817627 8.450439 -6.4956055 12.568787 -9.904602c12.946716 -10.716705 13.942749 -9.159637 26.92926 -19.817566c21.229187 -17.422699 41.313477 -36.530792 62.840027 -53.503296c12.227539 -9.640732 24.796692 -20.193771 25.137512 -19.817581c6.941223 7.661087 -11.597473 17.508057 -17.955383 25.762863c-14.529236 18.864014 -26.615967 42.430725 -46.680176 53.503265" fill-rule="evenodd"/><path stroke="#000000" stroke-width="24.0" stroke-linejoin="round" stroke-linecap="butt" d="m601.7803 193.12697c-4.3569336 38.470566 -24.238281 73.115524 -41.297363 107.00658c-6.23999 12.396851 -27.03711 27.621368 -17.9516 37.6492c7.2058105 7.953125 15.600952 -14.475433 23.338196 -21.795135c30.852722 -29.187897 58.27069 -62.53676 87.97754 -93.13846c9.103516 -9.377701 21.715149 -33.495346 30.520386 -23.776901c12.301514 13.577332 -13.934631 35.369705 -23.34198 51.521515c-27.387634 47.02275 -58.92871 90.93776 -87.973816 136.73296c-12.187256 19.215637 -23.300537 39.254425 -34.11139 59.448547c-4.701172 8.781525 -4.8442993 8.708862 -8.977722 17.831635c-2.1623535 4.7725525 -7.915283 12.2951355 -3.5910645 9.908783c23.116821 -12.757141 38.47583 -38.10193 57.45343 -57.466797c50.353516 -51.381104 99.426025 -104.270966 149.01825 -156.54633c32.146362 -33.885605 64.33435 -67.72824 96.95148 -101.061295c8.862549 -9.057098 8.86554 -9.057358 17.955322 -17.83583c5.2769165 -5.096176 13.37738 -17.094276 10.773254 -9.908783c-7.883606 21.753098 -27.456055 35.740173 -41.297363 53.50328c-28.529541 36.613113 -56.28357 73.95372 -84.38269 110.97008c-14.715942 19.386017 -29.907532 38.32602 -44.884644 57.466797c-7.2766724 9.299622 -30.732422 31.74646 -19.750916 29.72638c32.73047 -6.0208435 51.92157 -45.63846 77.204346 -69.35733c32.990173 -30.949615 66.11987 -61.72345 98.74695 -93.13846c18.313354 -17.63301 61.44873 -75.99785 57.45343 -49.539764c-2.6766357 17.725372 -18.025574 30.057358 -28.728577 43.59868c-23.427063 29.639511 -47.45343 58.72737 -70.01843 89.17073c-8.0564575 10.869354 -25.137512 17.660736 -25.137512 31.703949c0 5.6817627 8.450439 -6.4956055 12.568787 -9.904602c12.946716 -10.716705 13.942749 -9.159637 26.92926 -19.817566c21.229187 -17.422699 41.313477 -36.530792 62.840027 -53.503296c12.227539 -9.640732 24.796692 -20.193771 25.137512 -19.817581c6.941223 7.661087 -11.597473 17.508057 -17.955383 25.762863c-14.529236 18.864014 -26.615967 42.430725 -46.680176 53.503265" fill-rule="evenodd"/><path fill="#000000" fill-opacity="0.0" d="m100.87645 472.53308c-9.57502 11.889069 -19.345543 23.589783 -28.724815 35.66745c-3.7410355 4.8173523 -12.669144 11.800751 -7.182152 9.908783c17.634308 -6.0804443 39.18637 -42.07138 50.271263 -25.758667c18.171425 26.741394 -28.083801 59.37732 -44.884644 87.189026c-6.26458 10.370178 -28.05589 26.134094 -17.95538 31.70813c11.739582 6.4785156 28.63171 -29.89325 35.906956 -17.835876c8.312729 13.7769165 -14.835808 28.789673 -21.542656 43.594543" fill-rule="evenodd"/><path stroke="#000000" stroke-width="24.0" stroke-linejoin="round" stroke-linecap="butt" d="m100.87645 472.53308c-9.57502 11.889069 -19.345543 23.589783 -28.724815 35.66745c-3.7410355 4.8173523 -12.669144 11.800751 -7.182152 9.908783c17.634308 -6.0804443 39.18637 -42.07138 50.271263 -25.758667c18.171425 26.741394 -28.083801 59.37732 -44.884644 87.189026c-6.26458 10.370178 -28.05589 26.134094 -17.95538 31.70813c11.739582 6.4785156 28.63171 -29.89325 35.906956 -17.835876c8.312729 13.7769165 -14.835808 28.789673 -21.542656 43.594543" fill-rule="evenodd"/><path fill="#000000" fill-opacity="0.0" d="m208.5948 510.18326c42.02112 0 75.88612 -39.91327 113.11128 -61.43033c10.928955 -6.3171997 27.268097 -27.179504 34.11142 -15.849884c10.036072 16.615356 -19.512299 33.691986 -30.520325 49.539764c-22.803467 32.829163 -45.4758 65.83728 -70.02219 97.09778c-13.605728 17.32727 -28.82785 33.1792 -41.29358 51.521545c-2.7351074 4.024475 -9.4635315 11.622437 -5.386612 13.872314c17.720947 9.779419 36.79651 -16.631958 53.86235 -27.740417c30.692535 -19.978394 62.21164 -38.36798 93.36035 -57.466858c4.8017273 -2.9441528 53.51413 -30.301575 52.066803 -27.744568c-18.391235 32.491577 -47.90674 55.45404 -71.8139 83.229614c-1.6836243 1.9560547 -19.63327 24.33252 -17.955383 23.776917c41.986572 -13.902344 75.229614 -49.81299 111.315765 -77.28015c13.265686 -10.09729 49.58432 -42.995667 41.29355 -27.744629c-10.052948 18.492615 -24.905518 33.242615 -37.702484 49.539734c-5.8272705 7.4211426 -26.680115 19.873413 -17.955383 21.799377c37.795868 8.34314 70.973755 -33.797974 104.133606 -55.485046c3.6409302 -2.3812256 14.461426 -6.159668 12.568787 -1.9817505" fill-rule="evenodd"/><path stroke="#000000" stroke-width="24.0" stroke-linejoin="round" stroke-linecap="butt" d="m208.5948 510.18326c42.02112 0 75.88612 -39.91327 113.11128 -61.43033c10.928955 -6.3171997 27.268097 -27.179504 34.11142 -15.849884c10.036072 16.615356 -19.512299 33.691986 -30.520325 49.539764c-22.803467 32.829163 -45.4758 65.83728 -70.02219 97.09778c-13.605728 17.32727 -28.82785 33.1792 -41.29358 51.521545c-2.7351074 4.024475 -9.4635315 11.622437 -5.386612 13.872314c17.720947 9.779419 36.79651 -16.631958 53.86235 -27.740417c30.692535 -19.978394 62.21164 -38.36798 93.36035 -57.466858c4.8017273 -2.9441528 53.51413 -30.301575 52.066803 -27.744568c-18.391235 32.491577 -47.90674 55.45404 -71.8139 83.229614c-1.6836243 1.9560547 -19.63327 24.33252 -17.955383 23.776917c41.986572 -13.902344 75.229614 -49.81299 111.315765 -77.28015c13.265686 -10.09729 49.58432 -42.995667 41.29355 -27.744629c-10.052948 18.492615 -24.905518 33.242615 -37.702484 49.539734c-5.8272705 7.4211426 -26.680115 19.873413 -17.955383 21.799377c37.795868 8.34314 70.973755 -33.797974 104.133606 -55.485046c3.6409302 -2.3812256 14.461426 -6.159668 12.568787 -1.9817505" fill-rule="evenodd"/><path fill="#000000" fill-opacity="0.0" d="m693.33966 627.0968c14.363037 -15.852661 27.368164 -33.36139 43.08911 -47.557983c5.577942 -5.0371094 18.438904 -23.40039 16.159851 -15.854065c-6.459717 21.388977 -21.410706 38.40497 -32.319702 57.466797c-5.8672485 10.252075 -26.719666 28.375916 -16.156006 31.70813c40.919373 12.907654 77.54254 -38.93622 114.903015 -61.43036c13.630554 -8.206726 34.353577 -39.108948 41.297363 -23.781067c8.266785 18.248291 -44.977966 57.92914 -26.933044 53.503296c21.16919 -5.1921997 39.687866 -19.960083 57.45337 -33.68573c4.2178955 -3.258728 7.963745 -12.450134 12.568787 -9.908813c6.534485 3.6061401 -8.322388 13.2561035 -12.568787 19.817627c-6.965515 10.763123 35.906982 -15.208618 35.906982 -1.9817505" fill-rule="evenodd"/><path stroke="#000000" stroke-width="24.0" stroke-linejoin="round" stroke-linecap="butt" d="m693.33966 627.0968c14.363037 -15.852661 27.368164 -33.36139 43.08911 -47.557983c5.577942 -5.0371094 18.438904 -23.40039 16.159851 -15.854065c-6.459717 21.388977 -21.410706 38.40497 -32.319702 57.466797c-5.8672485 10.252075 -26.719666 28.375916 -16.156006 31.70813c40.919373 12.907654 77.54254 -38.93622 114.903015 -61.43036c13.630554 -8.206726 34.353577 -39.108948 41.297363 -23.781067c8.266785 18.248291 -44.977966 57.92914 -26.933044 53.503296c21.16919 -5.1921997 39.687866 -19.960083 57.45337 -33.68573c4.2178955 -3.258728 7.963745 -12.450134 12.568787 -9.908813c6.534485 3.6061401 -8.322388 13.2561035 -12.568787 19.817627c-6.965515 10.763123 35.906982 -15.208618 35.906982 -1.9817505" fill-rule="evenodd"/><path fill="#000000" fill-opacity="0.0" d="m944.6904 426.95712c-11.268005 9.672943 -22.058167 21.937408 -35.906982 25.758667c-4.227112 1.1663818 -8.563782 -5.85791 -12.568726 -3.963501c-1.8599854 0.87979126 -34.11145 25.880066 -34.11145 23.781097c0 -13.7439575 21.542664 -19.941742 21.542664 -33.6857c0 -11.228088 -19.73584 7.910431 -26.92926 15.849884" fill-rule="evenodd"/><path stroke="#000000" stroke-width="24.0" stroke-linejoin="round" stroke-linecap="butt" d="m944.6904 426.95712c-11.268005 9.672943 -22.058167 21.937408 -35.906982 25.758667c-4.227112 1.1663818 -8.563782 -5.85791 -12.568726 -3.963501c-1.8599854 0.87979126 -34.11145 25.880066 -34.11145 23.781097c0 -13.7439575 21.542664 -19.941742 21.542664 -33.6857c0 -11.228088 -19.73584 7.910431 -26.92926 15.849884" fill-rule="evenodd"/><path fill="#000000" fill-opacity="0.0" d="m434.81073 107.917625c18.271027 -10.080841 60.51947 -56.191914 52.066803 -35.667458c-9.708923 23.57489 -27.23645 42.339256 -43.08911 61.430313c-5.747406 6.921524 -24.66629 21.799347 -16.15982 21.799347c10.296173 0 16.566986 -13.513657 25.133728 -19.817581c19.749023 -14.532532 39.763763 -28.634377 59.248962 -43.594498c256.0022 -196.55069 -76.25656 59.52829 34.115173 -25.762856c3.9519653 -3.053894 15.401978 -12.233627 12.565002 -7.9270363c-20.159119 30.601673 -48.42401 53.588047 -71.813934 81.24791c-18.90503 22.356247 -13.6397705 18.330673 -26.933044 35.66745c-3.3260193 4.3377075 -14.126312 13.872314 -8.977692 13.872314c40.998566 0 69.411865 -48.340576 102.33807 -75.30263c19.800476 -16.21392 25.370483 -22.343529 37.7063 -31.703941c5.0768433 -3.852356 20.512451 -14.717072 16.156006 -9.908791c-25.13562 27.742516 -51.29413 54.4004 -75.40497 83.22966c-10.875366 13.003647 -23.43509 31.033524 -26.933075 35.66745c-3.295166 4.3652344 -13.967987 15.250687 -8.973907 13.872314c28.678467 -7.915283 50.05591 -34.735428 75.40503 -51.52153c10.826477 -7.169281 21.567383 -14.495132 32.31964 -21.799332c3.4177856 -2.321762 9.169495 -7.8093796 7.1783447 -3.9635239c-13.661804 26.387794 -37.825317 44.2174 -55.657837 67.37559c-5.508301 7.1533203 -24.22522 18.830658 -16.156067 21.799347c21.908936 8.060394 38.593018 -28.236038 59.248962 -39.635162" fill-rule="evenodd"/><path stroke="#000000" stroke-width="24.0" stroke-linejoin="round" stroke-linecap="butt" d="m434.81073 107.917625c18.271027 -10.080841 60.51947 -56.191914 52.066803 -35.667458c-9.708923 23.57489 -27.23645 42.339256 -43.08911 61.430313c-5.747406 6.921524 -24.66629 21.799347 -16.15982 21.799347c10.296173 0 16.566986 -13.513657 25.133728 -19.817581c19.749023 -14.532532 39.763763 -28.634377 59.248962 -43.594498c256.0022 -196.55069 -76.25656 59.52829 34.115173 -25.762856c3.9519653 -3.053894 15.401978 -12.233627 12.565002 -7.9270363c-20.159119 30.601673 -48.42401 53.588047 -71.813934 81.24791c-18.90503 22.356247 -13.6397705 18.330673 -26.933044 35.66745c-3.3260193 4.3377075 -14.126312 13.872314 -8.977692 13.872314c40.998566 0 69.411865 -48.340576 102.33807 -75.30263c19.800476 -16.21392 25.370483 -22.343529 37.7063 -31.703941c5.0768433 -3.852356 20.512451 -14.717072 16.156006 -9.908791c-25.13562 27.742516 -51.29413 54.4004 -75.40497 83.22966c-10.875366 13.003647 -23.43509 31.033524 -26.933075 35.66745c-3.295166 4.3652344 -13.967987 15.250687 -8.973907 13.872314c28.678467 -7.915283 50.05591 -34.735428 75.40503 -51.52153c10.826477 -7.169281 21.567383 -14.495132 32.31964 -21.799332c3.4177856 -2.321762 9.169495 -7.8093796 7.1783447 -3.9635239c-13.661804 26.387794 -37.825317 44.2174 -55.657837 67.37559c-5.508301 7.1533203 -24.22522 18.830658 -16.156067 21.799347c21.908936 8.060394 38.593018 -28.236038 59.248962 -39.635162" fill-rule="evenodd"/><path fill="#000000" fill-opacity="0.0" d="m155.17323 418.3445c62.013718 -38.158417 123.34807 -77.45587 186.20735 -114.20474c31.63205 -18.492737 63.708435 -36.92932 98.06824 -49.65616c7.7312317 -2.8636475 17.755524 -13.27858 23.585297 -7.448822c3.52359 3.5235748 -6.4081726 7.649658 -9.931763 11.173218c-14.488403 14.488403 -29.083893 28.927673 -44.687653 42.207367c-35.06888 29.845612 -72.33356 57.44876 -104.275604 90.619415c-0.7526245 0.7815857 -29.899597 34.723755 -29.795258 34.758545c8.821838 2.9406128 15.89563 -9.669983 23.587921 -14.89502c40.506317 -27.514313 83.008484 -52.214478 126.619415 -74.48294c12.535645 -6.4009094 25.37561 -12.25116 38.48294 -17.380585c5.728882 -2.2419434 17.380585 -12.359283 17.380585 -6.2073364c0 18.435974 -25.79248 26.408722 -39.724426 38.48294c-33.6557 29.167969 -67.81781 57.88867 -99.30969 89.380554c-13.299561 13.299561 -36.0 24.640442 -36.0 43.448822c0 9.624512 17.896606 -7.3298645 26.068237 -12.414673c25.731354 -16.011383 50.2377 -33.95575 74.48294 -52.13913c5.967346 -4.4753723 11.305176 -10.949219 18.619415 -12.412079c2.925476 -0.585083 -2.2963257 6.114258 -4.9658813 7.4461975" fill-rule="evenodd"/><path stroke="#000000" stroke-width="24.0" stroke-linejoin="round" stroke-linecap="butt" d="m155.17323 418.3445c62.013718 -38.158417 123.34807 -77.45587 186.20735 -114.20474c31.63205 -18.492737 63.708435 -36.92932 98.06824 -49.65616c7.7312317 -2.8636475 17.755524 -13.27858 23.585297 -7.448822c3.52359 3.5235748 -6.4081726 7.649658 -9.931763 11.173218c-14.488403 14.488403 -29.083893 28.927673 -44.687653 42.207367c-35.06888 29.845612 -72.33356 57.44876 -104.275604 90.619415c-0.7526245 0.7815857 -29.899597 34.723755 -29.795258 34.758545c8.821838 2.9406128 15.89563 -9.669983 23.587921 -14.89502c40.506317 -27.514313 83.008484 -52.214478 126.619415 -74.48294c12.535645 -6.4009094 25.37561 -12.25116 38.48294 -17.380585c5.728882 -2.2419434 17.380585 -12.359283 17.380585 -6.2073364c0 18.435974 -25.79248 26.408722 -39.724426 38.48294c-33.6557 29.167969 -67.81781 57.88867 -99.30969 89.380554c-13.299561 13.299561 -36.0 24.640442 -36.0 43.448822c0 9.624512 17.896606 -7.3298645 26.068237 -12.414673c25.731354 -16.011383 50.2377 -33.95575 74.48294 -52.13913c5.967346 -4.4753723 11.305176 -10.949219 18.619415 -12.412079c2.925476 -0.585083 -2.2963257 6.114258 -4.9658813 7.4461975" fill-rule="evenodd"/><path fill="#000000" fill-opacity="0.0" d="m842.89655 47.172268c-29.341858 29.332996 -56.6474 67.87421 -96.82941 78.20735c-9.15686 2.3547516 2.451477 -9.354416 7.4487915 -17.380577c15.561707 -24.993576 16.814087 -24.169014 33.51709 -48.4147c2.7374268 -3.973568 11.764587 -10.254169 7.4487915 -12.412071c-8.447388 -4.223713 -17.608398 7.563099 -24.826782 13.653542c-25.278992 21.328907 -48.12024 45.39092 -72.0 68.27559c-33.270386 31.884003 6.977295 -5.7786636 -19.863464 18.622055c-2.2965698 2.0877533 -5.9473877 6.668808 -4.9658813 3.724411c4.741577 -14.224899 19.098633 -23.121063 28.553772 -34.75853c4.489197 -5.52536 18.779358 -14.196114 12.412109 -17.380585c-11.27417 -5.6385574 -23.94928 8.412338 -34.758545 14.897644c-35.061157 21.035843 -12.209656 7.213539 -53.37799 33.51706c-9.575134 6.117813 -18.54895 13.232941 -28.553772 18.619415c-1.7272949 0.9299469 -4.197815 3.1445312 -3.7218018 1.2414703c7.754944 -31.003342 40.71161 -49.401917 63.309692 -71.99999c1.8622437 -1.8622055 6.341858 -4.015236 3.7244263 -3.724411c-27.295593 3.0328445 -48.25934 26.45826 -70.758545 42.207344c-9.768494 6.8378296 -9.231873 7.548828 -18.62201 14.897644c-4.8883057 3.8256378 -5.1279297 3.5176392 -9.931763 7.448822c-2.0374146 1.6672668 -5.827881 5.3039856 -3.7218018 3.724411c9.203857 -6.902878 16.395325 -17.466858 27.309692 -21.104996" fill-rule="evenodd"/><path stroke="#000000" stroke-width="24.0" stroke-linejoin="round" stroke-linecap="butt" d="m842.89655 47.172268c-29.341858 29.332996 -56.6474 67.87421 -96.82941 78.20735c-9.15686 2.3547516 2.451477 -9.354416 7.4487915 -17.380577c15.561707 -24.993576 16.814087 -24.169014 33.51709 -48.4147c2.7374268 -3.973568 11.764587 -10.254169 7.4487915 -12.412071c-8.447388 -4.223713 -17.608398 7.563099 -24.826782 13.653542c-25.278992 21.328907 -48.12024 45.39092 -72.0 68.27559c-33.270386 31.884003 6.977295 -5.7786636 -19.863464 18.622055c-2.2965698 2.0877533 -5.9473877 6.668808 -4.9658813 3.724411c4.741577 -14.224899 19.098633 -23.121063 28.553772 -34.75853c4.489197 -5.52536 18.779358 -14.196114 12.412109 -17.380585c-11.27417 -5.6385574 -23.94928 8.412338 -34.758545 14.897644c-35.061157 21.035843 -12.209656 7.213539 -53.37799 33.51706c-9.575134 6.117813 -18.54895 13.232941 -28.553772 18.619415c-1.7272949 0.9299469 -4.197815 3.1445312 -3.7218018 1.2414703c7.754944 -31.003342 40.71161 -49.401917 63.309692 -71.99999c1.8622437 -1.8622055 6.341858 -4.015236 3.7244263 -3.724411c-27.295593 3.0328445 -48.25934 26.45826 -70.758545 42.207344c-9.768494 6.8378296 -9.231873 7.548828 -18.62201 14.897644c-4.8883057 3.8256378 -5.1279297 3.5176392 -9.931763 7.448822c-2.0374146 1.6672668 -5.827881 5.3039856 -3.7218018 3.724411c9.203857 -6.902878 16.395325 -17.466858 27.309692 -21.104996" fill-rule="evenodd"/><path fill="#000000" fill-opacity="0.0" d="m76.96583 151.44772c20.016357 -10.008179 37.792114 -24.037758 55.860893 -37.241463c625.82086 -457.31693 -335.82425 243.44577 21.10498 -16.139114c2.9927826 -2.176567 9.929138 -8.666443 9.929138 -4.9658737c0 15.7567215 -14.845184 27.855392 -23.585297 40.96588c-12.413826 18.62117 -24.475174 37.482193 -37.241478 55.86351c-7.4642334 10.747238 -25.517418 19.581253 -22.343826 32.27559c0.6732788 2.6931305 2.700653 -0.8782654 4.9658737 -2.4829407c12.6621475 -8.969803 12.647682 -9.006577 24.826775 -18.62204c18.385765 -14.515671 36.504402 -29.80687 57.102364 -40.963257c6.185913 -3.3504639 16.009308 -16.463593 18.62204 -9.931763c6.610016 16.525024 -20.476639 29.12024 -31.034119 43.448822c-2.8622437 3.8846283 -10.860764 15.82402 -7.448822 12.412079" fill-rule="evenodd"/><path stroke="#000000" stroke-width="24.0" stroke-linejoin="round" stroke-linecap="butt" d="m76.96583 151.44772c20.016357 -10.008179 37.792114 -24.037758 55.860893 -37.241463c625.82086 -457.31693 -335.82425 243.44577 21.10498 -16.139114c2.9927826 -2.176567 9.929138 -8.666443 9.929138 -4.9658737c0 15.7567215 -14.845184 27.855392 -23.585297 40.96588c-12.413826 18.62117 -24.475174 37.482193 -37.241478 55.86351c-7.4642334 10.747238 -25.517418 19.581253 -22.343826 32.27559c0.6732788 2.6931305 2.700653 -0.8782654 4.9658737 -2.4829407c12.6621475 -8.969803 12.647682 -9.006577 24.826775 -18.62204c18.385765 -14.515671 36.504402 -29.80687 57.102364 -40.963257c6.185913 -3.3504639 16.009308 -16.463593 18.62204 -9.931763c6.610016 16.525024 -20.476639 29.12024 -31.034119 43.448822c-2.8622437 3.8846283 -10.860764 15.82402 -7.448822 12.412079" fill-rule="evenodd"/><path fill="#000000" fill-opacity="0.0" d="m286.75858 94.34406c-19.402039 5.543442 -36.588165 17.361275 -53.377945 28.553802c-4.2026367 2.8015976 -15.986816 12.258537 -12.414703 8.68766c11.840469 -11.836288 24.85942 -22.544495 38.482956 -32.27558c7.392029 -5.2800217 24.588684 -22.682045 23.585297 -13.653542c-3.312317 29.803825 -53.348434 51.605286 -42.20735 79.4462c2.3867798 5.964432 12.876007 2.0928497 18.622055 4.965866" fill-rule="evenodd"/><path stroke="#000000" stroke-width="24.0" stroke-linejoin="round" stroke-linecap="butt" d="m286.75858 94.34406c-19.402039 5.543442 -36.588165 17.361275 -53.377945 28.553802c-4.2026367 2.8015976 -15.986816 12.258537 -12.414703 8.68766c11.840469 -11.836288 24.85942 -22.544495 38.482956 -32.27558c7.392029 -5.2800217 24.588684 -22.682045 23.585297 -13.653542c-3.312317 29.803825 -53.348434 51.605286 -42.20735 79.4462c2.3867798 5.964432 12.876007 2.0928497 18.622055 4.965866" fill-rule="evenodd"/><path fill="#000000" fill-opacity="0.0" d="m158.89812 28.551182c-6.949692 8.10796 -21.213333 15.708591 -18.622055 26.068241c3.2146454 12.851799 29.115372 -19.296703 38.48294 -9.929134c2.3585358 2.3585434 0.41377258 7.0333405 -1.2414703 9.929134c-1.377594 2.4100723 -6.2073517 8.690289 -3.724411 7.448818" fill-rule="evenodd"/><path stroke="#000000" stroke-width="24.0" stroke-linejoin="round" stroke-linecap="butt" d="m158.89812 28.551182c-6.949692 8.10796 -21.213333 15.708591 -18.622055 26.068241c3.2146454 12.851799 29.115372 -19.296703 38.48294 -9.929134c2.3585358 2.3585434 0.41377258 7.0333405 -1.2414703 9.929134c-1.377594 2.4100723 -6.2073517 8.690289 -3.724411 7.448818" fill-rule="evenodd"/><path fill="#000000" fill-opacity="0.0" d="m76.96658 276.82666c-5.494568 9.157593 -12.339859 17.43451 -18.622044 26.070862c-2.3968277 3.294983 -8.958664 10.371521 -4.963257 11.170593c7.0971985 1.4194336 12.856945 -6.7912292 18.619427 -11.170593c18.650856 -14.174286 36.867386 -29.162903 57.102364 -40.96588c8.474075 -4.9429016 17.053757 -9.791702 26.070862 -13.656174c2.3128662 -0.9912262 6.8358917 -3.682663 7.4461975 -1.2414703c1.3942261 5.576935 -5.404663 10.178741 -8.687668 14.897644c-15.550354 22.351562 -32.399506 43.77176 -48.414696 65.79263c-2.1288757 2.9272156 -3.724411 2.5878906 -3.724411 6.207367c0 3.8152466 7.553749 -1.2764587 11.173225 -2.4829407" fill-rule="evenodd"/><path stroke="#000000" stroke-width="24.0" stroke-linejoin="round" stroke-linecap="butt" d="m76.96658 276.82666c-5.494568 9.157593 -12.339859 17.43451 -18.622044 26.070862c-2.3968277 3.294983 -8.958664 10.371521 -4.963257 11.170593c7.0971985 1.4194336 12.856945 -6.7912292 18.619427 -11.170593c18.650856 -14.174286 36.867386 -29.162903 57.102364 -40.96588c8.474075 -4.9429016 17.053757 -9.791702 26.070862 -13.656174c2.3128662 -0.9912262 6.8358917 -3.682663 7.4461975 -1.2414703c1.3942261 5.576935 -5.404663 10.178741 -8.687668 14.897644c-15.550354 22.351562 -32.399506 43.77176 -48.414696 65.79263c-2.1288757 2.9272156 -3.724411 2.5878906 -3.724411 6.207367c0 3.8152466 7.553749 -1.2764587 11.173225 -2.4829407" fill-rule="evenodd"/><path fill="#000000" fill-opacity="0.0" d="m342.6199 131.58463c13.069611 -9.50267 25.030945 -20.450188 37.241455 -31.034119c6.5065613 -5.6397934 13.577972 -10.713333 21.10498 -14.895012c1.9564514 -1.0869141 4.650696 -4.520355 3.7244263 -2.4829407c-13.77829 30.30642 -38.49106 54.63587 -53.380585 84.41207c-3.4772034 6.9537354 -15.426636 15.607483 -9.929138 21.104996c6.755005 6.755005 18.923157 -4.115814 27.309723 -8.690292c3.7396545 -2.0398102 11.594452 -10.446014 11.170593 -6.2073517c-0.7041931 7.0420074 -1.8609009 6.828079 -3.7217712 13.656174" fill-rule="evenodd"/><path stroke="#000000" stroke-width="24.0" stroke-linejoin="round" stroke-linecap="butt" d="m342.6199 131.58463c13.069611 -9.50267 25.030945 -20.450188 37.241455 -31.034119c6.5065613 -5.6397934 13.577972 -10.713333 21.10498 -14.895012c1.9564514 -1.0869141 4.650696 -4.520355 3.7244263 -2.4829407c-13.77829 30.30642 -38.49106 54.63587 -53.380585 84.41207c-3.4772034 6.9537354 -15.426636 15.607483 -9.929138 21.104996c6.755005 6.755005 18.923157 -4.115814 27.309723 -8.690292c3.7396545 -2.0398102 11.594452 -10.446014 11.170593 -6.2073517c-0.7041931 7.0420074 -1.8609009 6.828079 -3.7217712 13.656174" fill-rule="evenodd"/><path fill="#000000" fill-opacity="0.0" d="m192.4147 474.2082c22.588974 -14.523682 43.503784 -31.747253 67.03412 -44.690308c5.979248 -3.28891 17.326477 -11.30188 19.8609 -4.9658813c3.7168274 9.292053 -9.26767 17.792389 -14.89502 26.068237c-8.905899 13.097443 -18.560898 25.779602 -26.070877 39.724426c-1.6764832 3.112976 -6.224533 7.4316406 -3.724411 9.931763c6.0324707 6.03244 27.403198 -17.562286 23.587921 -9.931763" fill-rule="evenodd"/><path stroke="#000000" stroke-width="24.0" stroke-linejoin="round" stroke-linecap="butt" d="m192.4147 474.2082c22.588974 -14.523682 43.503784 -31.747253 67.03412 -44.690308c5.979248 -3.28891 17.326477 -11.30188 19.8609 -4.9658813c3.7168274 9.292053 -9.26767 17.792389 -14.89502 26.068237c-8.905899 13.097443 -18.560898 25.779602 -26.070877 39.724426c-1.6764832 3.112976 -6.224533 7.4316406 -3.724411 9.931763c6.0324707 6.03244 27.403198 -17.562286 23.587921 -9.931763" fill-rule="evenodd"/><path fill="#000000" fill-opacity="0.0" d="m463.03412 273.1035c9.622498 -4.811249 19.661316 -8.793213 29.792664 -12.412079c3.5073547 -1.2528076 12.556427 -3.4580383 11.173218 0c-11.956329 29.890839 -38.83362 51.35791 -58.34384 76.96588c-4.2703857 5.605072 -13.656158 9.089996 -13.656158 16.136475c0 3.1515808 6.0680237 -1.9762268 8.690277 -3.7243958c11.751434 -7.8342896 23.367615 -16.027649 36.0 -22.343842" fill-rule="evenodd"/><path stroke="#000000" stroke-width="24.0" stroke-linejoin="round" stroke-linecap="butt" d="m463.03412 273.1035c9.622498 -4.811249 19.661316 -8.793213 29.792664 -12.412079c3.5073547 -1.2528076 12.556427 -3.4580383 11.173218 0c-11.956329 29.890839 -38.83362 51.35791 -58.34384 76.96588c-4.2703857 5.605072 -13.656158 9.089996 -13.656158 16.136475c0 3.1515808 6.0680237 -1.9762268 8.690277 -3.7243958c11.751434 -7.8342896 23.367615 -16.027649 36.0 -22.343842" fill-rule="evenodd"/><path fill="#000000" fill-opacity="0.0" d="m616.9659 201.10173c20.801025 -7.5614777 41.071228 -16.586304 62.068237 -23.585297c4.595093 -1.5317078 9.158936 -6.764786 13.656189 -4.9658813c5.864929 2.3459778 -5.587219 11.553696 -9.931763 16.1391c-10.682922 11.275131 -21.198486 22.737198 -31.034119 34.75853c-3.7788696 4.6186066 -14.151428 10.675354 -9.931763 14.89502c2.5168457 2.5168304 5.9729004 -3.9058533 8.690247 -6.204727c8.97998 -7.5969696 18.124878 -14.99855 27.309753 -22.34645" fill-rule="evenodd"/><path stroke="#000000" stroke-width="24.0" stroke-linejoin="round" stroke-linecap="butt" d="m616.9659 201.10173c20.801025 -7.5614777 41.071228 -16.586304 62.068237 -23.585297c4.595093 -1.5317078 9.158936 -6.764786 13.656189 -4.9658813c5.864929 2.3459778 -5.587219 11.553696 -9.931763 16.1391c-10.682922 11.275131 -21.198486 22.737198 -31.034119 34.75853c-3.7788696 4.6186066 -14.151428 10.675354 -9.931763 14.89502c2.5168457 2.5168304 5.9729004 -3.9058533 8.690247 -6.204727c8.97998 -7.5969696 18.124878 -14.99855 27.309753 -22.34645" fill-rule="evenodd"/><path fill="#000000" fill-opacity="0.0" d="m777.10236 170.06824c-17.86029 8.931519 -34.363037 20.673248 -49.653564 33.51706c-5.605957 4.708954 -10.03363 10.667114 -14.897583 16.139114c-1.7496948 1.968338 -5.9157104 5.1852417 -3.7244263 3.724411c21.474243 -14.316193 33.308167 -44.638077 58.346436 -50.897644c12.399353 -3.0998383 -11.460876 22.93071 -18.62201 33.51706c-15.176758 22.435837 -33.81305 42.809433 -45.931763 67.03412" fill-rule="evenodd"/><path stroke="#000000" stroke-width="24.0" stroke-linejoin="round" stroke-linecap="butt" d="m777.10236 170.06824c-17.86029 8.931519 -34.363037 20.673248 -49.653564 33.51706c-5.605957 4.708954 -10.03363 10.667114 -14.897583 16.139114c-1.7496948 1.968338 -5.9157104 5.1852417 -3.7244263 3.724411c21.474243 -14.316193 33.308167 -44.638077 58.346436 -50.897644c12.399353 -3.0998383 -11.460876 22.93071 -18.62201 33.51706c-15.176758 22.435837 -33.81305 42.809433 -45.931763 67.03412" fill-rule="evenodd"/><path fill="#000000" fill-opacity="0.0" d="m279.30972 147.72557c18.605103 -12.403397 33.892883 -29.281807 52.1391 -42.20735c8.553467 -6.0592346 23.825836 -17.09858 23.585297 -16.136482c-8.934143 35.73658 -42.228302 60.847725 -68.27557 86.89501" fill-rule="evenodd"/><path stroke="#000000" stroke-width="24.0" stroke-linejoin="round" stroke-linecap="butt" d="m279.30972 147.72557c18.605103 -12.403397 33.892883 -29.281807 52.1391 -42.20735c8.553467 -6.0592346 23.825836 -17.09858 23.585297 -16.136482c-8.934143 35.73658 -42.228302 60.847725 -68.27557 86.89501" fill-rule="evenodd"/><path fill="#000000" fill-opacity="0.0" d="m386.06824 148.96591c18.730072 -9.365036 33.220062 -25.507065 49.65616 -38.48294c6.9732056 -5.5051575 19.612091 -20.36113 23.585327 -12.414696c2.4829407 4.9658813 -4.3692627 10.277992 -7.448822 14.897636c-7.070465 10.6063 -13.330383 22.02066 -22.343842 31.034119" fill-rule="evenodd"/><path stroke="#000000" stroke-width="24.0" stroke-linejoin="round" stroke-linecap="butt" d="m386.06824 148.96591c18.730072 -9.365036 33.220062 -25.507065 49.65616 -38.48294c6.9732056 -5.5051575 19.612091 -20.36113 23.585327 -12.414696c2.4829407 4.9658813 -4.3692627 10.277992 -7.448822 14.897636c-7.070465 10.6063 -13.330383 22.02066 -22.343842 31.034119" fill-rule="evenodd"/><path fill="#000000" fill-opacity="0.0" d="m644.27655 62.068375c11.70343 -5.118702 23.2146 -10.667675 34.758545 -16.136482c4.1812134 -1.9808006 8.397644 -3.911869 12.414734 -6.207348c2.2724 -1.2985191 8.619263 -4.8238792 7.4487915 -2.4829407c-14.403564 28.80708 -43.558105 47.460087 -65.79529 70.75853c-5.8616333 6.141365 -12.164978 11.918648 -17.37793 18.619423c-1.3742676 1.7664871 -4.654236 3.1815872 -2.4829712 3.7244034c23.551636 5.887909 39.033264 -36.0 63.309753 -36.0" fill-rule="evenodd"/><path stroke="#000000" stroke-width="24.0" stroke-linejoin="round" stroke-linecap="butt" d="m644.27655 62.068375c11.70343 -5.118702 23.2146 -10.667675 34.758545 -16.136482c4.1812134 -1.9808006 8.397644 -3.911869 12.414734 -6.207348c2.2724 -1.2985191 8.619263 -4.8238792 7.4487915 -2.4829407c-14.403564 28.80708 -43.558105 47.460087 -65.79529 70.75853c-5.8616333 6.141365 -12.164978 11.918648 -17.37793 18.619423c-1.3742676 1.7664871 -4.654236 3.1815872 -2.4829712 3.7244034c23.551636 5.887909 39.033264 -36.0 63.309753 -36.0" fill-rule="evenodd"/><path fill="#000000" fill-opacity="0.0" d="m724.9659 182.4842c23.269348 -17.451996 44.425537 -37.563614 67.03412 -55.86351c6.8828125 -5.571121 13.183899 -20.099907 21.102356 -16.136482c11.559814 5.786026 -15.95105 20.394249 -24.826782 29.79264c-12.462097 13.196045 -25.182434 26.159058 -37.241455 39.72441c-6.6206665 7.447647 -13.882141 14.371704 -19.8609 22.343842c-1.6655273 2.2208557 -5.116394 5.8440094 -2.4829102 4.9658813c26.486877 -8.832092 42.2135 -36.62709 64.55115 -53.37796c4.8883057 -3.66568 19.525879 -13.775787 16.1391 -8.690292" fill-rule="evenodd"/><path stroke="#000000" stroke-width="24.0" stroke-linejoin="round" stroke-linecap="butt" d="m724.9659 182.4842c23.269348 -17.451996 44.425537 -37.563614 67.03412 -55.86351c6.8828125 -5.571121 13.183899 -20.099907 21.102356 -16.136482c11.559814 5.786026 -15.95105 20.394249 -24.826782 29.79264c-12.462097 13.196045 -25.182434 26.159058 -37.241455 39.72441c-6.6206665 7.447647 -13.882141 14.371704 -19.8609 22.343842c-1.6655273 2.2208557 -5.116394 5.8440094 -2.4829102 4.9658813c26.486877 -8.832092 42.2135 -36.62709 64.55115 -53.37796c4.8883057 -3.66568 19.525879 -13.775787 16.1391 -8.690292" fill-rule="evenodd"/><path fill="#000000" fill-opacity="0.0" d="m238.34464 224.69029c-9.232422 13.849319 -18.676926 27.566605 -28.551178 40.965866c-4.172989 5.6627197 -16.829376 19.998962 -9.931763 18.619446c20.389374 -4.077881 35.672318 -21.37732 53.380585 -32.275604c6.4690857 -3.9812927 12.655182 -13.576828 19.8609 -11.173233c3.3764343 1.1262817 -3.6881409 6.173218 -6.2047424 8.690292c-6.22052 6.2217255 -11.159439 13.642395 -17.38057 19.863525" fill-rule="evenodd"/><path stroke="#000000" stroke-width="24.0" stroke-linejoin="round" stroke-linecap="butt" d="m238.34464 224.69029c-9.232422 13.849319 -18.676926 27.566605 -28.551178 40.965866c-4.172989 5.6627197 -16.829376 19.998962 -9.931763 18.619446c20.389374 -4.077881 35.672318 -21.37732 53.380585 -32.275604c6.4690857 -3.9812927 12.655182 -13.576828 19.8609 -11.173233c3.3764343 1.1262817 -3.6881409 6.173218 -6.2047424 8.690292c-6.22052 6.2217255 -11.159439 13.642395 -17.38057 19.863525" fill-rule="evenodd"/><path fill="#000000" fill-opacity="0.0" d="m112.964714 609.5173c5.7211456 -3.4327393 11.410706 -6.9473877 17.377953 -9.931763c2.8187103 -1.409729 9.003891 -6.8603516 8.690292 -3.7244263c-1.9206848 19.206848 -18.833351 33.766357 -29.792648 49.65619c-5.4086075 7.841858 -10.423599 15.964172 -16.139114 23.585266c-2.1355133 2.8475342 -9.657677 9.554016 -6.2047195 8.690308c24.011734 -6.0061035 39.236237 -30.198486 58.343834 -45.931763c3.5713959 -2.9407349 14.483643 -10.34259 12.414688 -6.204712" fill-rule="evenodd"/><path stroke="#000000" stroke-width="24.0" stroke-linejoin="round" stroke-linecap="butt" d="m112.964714 609.5173c5.7211456 -3.4327393 11.410706 -6.9473877 17.377953 -9.931763c2.8187103 -1.409729 9.003891 -6.8603516 8.690292 -3.7244263c-1.9206848 19.206848 -18.833351 33.766357 -29.792648 49.65619c-5.4086075 7.841858 -10.423599 15.964172 -16.139114 23.585266c-2.1355133 2.8475342 -9.657677 9.554016 -6.2047195 8.690308c24.011734 -6.0061035 39.236237 -30.198486 58.343834 -45.931763c3.5713959 -2.9407349 14.483643 -10.34259 12.414688 -6.204712" fill-rule="evenodd"/><path fill="#000000" fill-opacity="0.0" d="m281.79266 655.4489c9.167664 -6.1118164 18.25113 -12.349731 27.309692 -18.62207c5.0230103 -3.4780273 15.134369 -14.714111 16.1391 -8.687683c2.793274 16.753723 -18.677856 28.384216 -28.551178 42.204773c-4.2079773 5.890259 -18.196045 16.866333 -11.173218 18.62201c13.583618 3.395935 22.229767 -17.334167 34.758545 -23.585266" fill-rule="evenodd"/><path stroke="#000000" stroke-width="24.0" stroke-linejoin="round" stroke-linecap="butt" d="m281.79266 655.4489c9.167664 -6.1118164 18.25113 -12.349731 27.309692 -18.62207c5.0230103 -3.4780273 15.134369 -14.714111 16.1391 -8.687683c2.793274 16.753723 -18.677856 28.384216 -28.551178 42.204773c-4.2079773 5.890259 -18.196045 16.866333 -11.173218 18.62201c13.583618 3.395935 22.229767 -17.334167 34.758545 -23.585266" fill-rule="evenodd"/><path fill="#000000" fill-opacity="0.0" d="m592.1392 651.7244c-1.4807739 7.4040527 -10.198364 18.457825 -3.7243652 22.343811c10.214844 6.131531 22.860962 -17.740112 33.51703 -12.412048c3.3098755 1.6549072 -2.7453613 6.96875 -4.9658813 9.929138c-9.734192 12.977539 -19.832947 25.677612 -29.792664 38.48291c-1.4813843 1.9047241 -6.0653076 6.7926025 -3.7243652 6.2073364c9.241272 -2.3103027 14.05957 -16.136475 23.585266 -16.136475" fill-rule="evenodd"/><path stroke="#000000" stroke-width="24.0" stroke-linejoin="round" stroke-linecap="butt" d="m592.1392 651.7244c-1.4807739 7.4040527 -10.198364 18.457825 -3.7243652 22.343811c10.214844 6.131531 22.860962 -17.740112 33.51703 -12.412048c3.3098755 1.6549072 -2.7453613 6.96875 -4.9658813 9.929138c-9.734192 12.977539 -19.832947 25.677612 -29.792664 38.48291c-1.4813843 1.9047241 -6.0653076 6.7926025 -3.7243652 6.2073364c9.241272 -2.3103027 14.05957 -16.136475 23.585266 -16.136475" fill-rule="evenodd"/><path fill="#000000" fill-opacity="0.0" d="m675.3092 546.20734c-3.5379639 9.43457 -6.7458496 18.991089 -9.929138 28.551208c-0.666626 2.0020142 -3.2005615 5.423401 -1.2414551 6.2073364c12.389404 4.9578857 31.521973 -32.809692 34.758484 -19.863525c3.4122925 13.64917 -26.155457 24.657593 -19.863525 37.241455c3.7011108 7.4022217 12.977539 -10.304321 19.863525 -14.89502" fill-rule="evenodd"/><path stroke="#000000" stroke-width="24.0" stroke-linejoin="round" stroke-linecap="butt" d="m675.3092 546.20734c-3.5379639 9.43457 -6.7458496 18.991089 -9.929138 28.551208c-0.666626 2.0020142 -3.2005615 5.423401 -1.2414551 6.2073364c12.389404 4.9578857 31.521973 -32.809692 34.758484 -19.863525c3.4122925 13.64917 -26.155457 24.657593 -19.863525 37.241455c3.7011108 7.4022217 12.977539 -10.304321 19.863525 -14.89502" fill-rule="evenodd"/><path fill="#000000" fill-opacity="0.0" d="m852.8268 507.72513c15.628906 -3.3490295 30.394043 -10.232452 44.690308 -17.380554c4.8114014 -2.4057312 9.793213 -7.9026184 14.897583 -6.2047424c3.9260864 1.3059082 -4.5231323 7.0034485 -7.4487915 9.929138c-11.179993 11.180023 -21.59076 23.10437 -32.275574 34.758545c-2.9728394 3.2424927 -8.690308 5.532715 -8.690308 9.931763c0 3.4124756 7.201782 -0.43548584 9.931763 -2.4829712c11.127747 -8.345764 22.090332 -21.102356 36.0 -21.102356" fill-rule="evenodd"/><path stroke="#000000" stroke-width="24.0" stroke-linejoin="round" stroke-linecap="butt" d="m852.8268 507.72513c15.628906 -3.3490295 30.394043 -10.232452 44.690308 -17.380554c4.8114014 -2.4057312 9.793213 -7.9026184 14.897583 -6.2047424c3.9260864 1.3059082 -4.5231323 7.0034485 -7.4487915 9.929138c-11.179993 11.180023 -21.59076 23.10437 -32.275574 34.758545c-2.9728394 3.2424927 -8.690308 5.532715 -8.690308 9.931763c0 3.4124756 7.201782 -0.43548584 9.931763 -2.4829712c11.127747 -8.345764 22.090332 -21.102356 36.0 -21.102356" fill-rule="evenodd"/><path fill="#000000" fill-opacity="0.0" d="m507.7244 424.55157c-0.43704224 -2.1852417 -4.2141113 -3.4795837 -6.2073364 -2.4829407" fill-rule="evenodd"/><path stroke="#000000" stroke-width="24.0" stroke-linejoin="round" stroke-linecap="butt" d="m507.7244 424.55157c-0.43704224 -2.1852417 -4.2141113 -3.4795837 -6.2073364 -2.4829407" fill-rule="evenodd"/><path fill="#000000" fill-opacity="0.0" d="m520.1391 372.4147c-18.539642 22.239746 -31.74173 48.585815 -44.690277 74.48294" fill-rule="evenodd"/><path stroke="#000000" stroke-width="24.0" stroke-linejoin="round" stroke-linecap="butt" d="m520.1391 372.4147c-18.539642 22.239746 -31.74173 48.585815 -44.690277 74.48294" fill-rule="evenodd"/><path fill="#000000" fill-opacity="0.0" d="m517.6562 432.0c-2.732483 5.464966 -5.9578247 10.674133 -8.690308 16.1391" fill-rule="evenodd"/><path stroke="#000000" stroke-width="24.0" stroke-linejoin="round" stroke-linecap="butt" d="m517.6562 432.0c-2.732483 5.464966 -5.9578247 10.674133 -8.690308 16.1391" fill-rule="evenodd"/><path fill="#000000" fill-opacity="0.0" d="m641.79266 448.1391c-4.1776123 12.523926 -16.92743 20.99228 -21.102356 33.51706" fill-rule="evenodd"/><path stroke="#000000" stroke-width="24.0" stroke-linejoin="round" stroke-linecap="butt" d="m641.79266 448.1391c-4.1776123 12.523926 -16.92743 20.99228 -21.102356 33.51706" fill-rule="evenodd"/><path fill="#000000" fill-opacity="0.0" d="m256.96588 307.8609c-23.769287 47.538574 -45.931763 99.54056 -45.931763 152.69028" fill-rule="evenodd"/><path stroke="#000000" stroke-width="24.0" stroke-linejoin="round" stroke-linecap="butt" d="m256.96588 307.8609c-23.769287 47.538574 -45.931763 99.54056 -45.931763 152.69028" fill-rule="evenodd"/><path fill="#000000" fill-opacity="0.0" d="m253.24147 440.69028c-21.6958 23.86081 -38.958054 51.845245 -53.380585 80.69028" fill-rule="evenodd"/><path stroke="#000000" stroke-width="24.0" stroke-linejoin="round" stroke-linecap="butt" d="m253.24147 440.69028c-21.6958 23.86081 -38.958054 51.845245 -53.380585 80.69028" fill-rule="evenodd"/><path fill="#000000" fill-opacity="0.0" d="m230.89764 526.3438c-10.675781 21.351562 -22.844528 42.70807 -39.72441 59.58795" fill-rule="evenodd"/><path stroke="#000000" stroke-width="24.0" stroke-linejoin="round" stroke-linecap="butt" d="m230.89764 526.3438c-10.675781 21.351562 -22.844528 42.70807 -39.72441 59.58795" fill-rule="evenodd"/><path fill="#000000" fill-opacity="0.0" d="m464.2756 474.20734c-4.68396 6.022217 -9.503143 11.980377 -14.89502 17.37796" fill-rule="evenodd"/><path stroke="#000000" stroke-width="24.0" stroke-linejoin="round" stroke-linecap="butt" d="m464.2756 474.20734c-4.68396 6.022217 -9.503143 11.980377 -14.89502 17.37796" fill-rule="evenodd"/></g></svg>